<?xml version="1.0" encoding="utf-8"?>
<!-- Generator: Adobe Illustrator 21.1.0, SVG Export Plug-In . SVG Version: 6.00 Build 0)  -->
<svg version="1.1" id="Layer_1" xmlns="http://www.w3.org/2000/svg" xmlns:xlink="http://www.w3.org/1999/xlink" x="0px" y="0px"
	 viewBox="0 0 389 80" style="enable-background:new 0 0 389 80;" xml:space="preserve">
<style type="text/css">
	.st0{fill:#FFFFFF;}
</style>
<g>
	<path class="st0" d="M33.9,22.1c0,5.9,3.4,9.8,8.4,9.8c5.1,0,8.4-3.7,8.4-9.5c0-2.8-0.5-4.6-1.8-6.3c-1.6-2.2-3.8-3.3-6.6-3.3
		C37.4,12.6,33.9,16.5,33.9,22.1 M55.5,22.2c0,7.9-5.2,13.1-13,13.1c-8.2,0-13.2-5.2-13.2-13.4c0-7.7,5.2-12.7,13.1-12.7
		C50.5,9.2,55.5,14.2,55.5,22.2"/>
	<path class="st0" d="M67.2,15.4c0.5-3.7,3.6-6.2,7.6-6.2c0.7,0,1.4,0.1,2,0.3v4c-0.7-0.6-1.5-0.8-2.4-0.8c-1.9,0-3.6,0.7-4.9,2
		c-1.6,1.6-2.3,3.9-2.3,7v9.6h5.3v3.4H58.2v-3.4h4.7V13.3h-4.7V9.9h9V15.4z"/>
	<path class="st0" d="M88.7,15.4c0.5-3.7,3.7-6.2,7.9-6.2c0.7,0,1.4,0.1,2.1,0.3v4c-0.7-0.6-1.5-0.8-2.4-0.8c-1.9,0-3.6,0.7-4.9,2
		c-1.6,1.6-2.3,3.9-2.3,7v9.6h5.3v3.4H79.7v-3.4h4.7V13.3h-4.7V9.9h9V15.4z"/>
	<path class="st0" d="M121,19.9c-0.3-4.6-3.1-7.4-7.7-7.4c-4.5,0-7.6,2.7-8.2,7.4H121z M125.5,27c-0.2,1.4-0.7,2.7-1.5,3.8
		c-2.1,3.1-5.6,4.7-10.5,4.7c-5.3,0-8.6-1.5-11.1-5c-1.6-2.3-2.3-4.8-2.3-8c0-8.5,4.9-13.6,13.1-13.6c6.4,0,10.5,2.8,11.9,8.1
		c0.5,2,0.7,3,0.7,6.2h-21c0.2,5.3,3.6,8.7,8.9,8.7c4,0,6.9-1.8,7.6-4.9L125.5,27z"/>
	<polygon class="st0" points="136.7,31.4 141.1,31.4 141.1,34.8 127.7,34.8 127.7,31.4 132.1,31.4 132.1,4.6 127.7,4.6 127.7,1.5 
		136.7,1.5 	"/>
	<path class="st0" d="M157.4,22.8c-3.8,0-5.8,0.4-7.1,1.3c-1.2,0.8-1.9,2.1-1.9,3.5c0,2.6,2,4.3,5.2,4.3c2.8,0,5.1-1,6.4-2.8
		c1-1.3,1.4-2.7,1.8-6.1C160.3,22.8,159.2,22.8,157.4,22.8 M144.4,17.1c0.6-5.3,4.1-7.8,11-7.8c4,0,6.8,0.9,8.6,2.6
		c1.6,1.6,2,3.3,2,7v12.5h4.7v3.4H162v-5.4c-1.4,4.1-4.2,5.8-9.2,5.8c-5.8,0-9.1-2.8-9.1-7.6c0-3.3,1.6-5.6,4.5-6.9
		c1.8-0.8,4.6-1.2,8.9-1.2c0.6,0,4.6,0.1,4.6,0.1v-1c0.1-2.7-0.3-3.7-1.5-4.7c-1-0.9-2.6-1.3-4.7-1.3c-4,0-6.1,1.5-6.4,4.3
		L144.4,17.1z"/>
	<path class="st0" d="M179.1,27.8c0,1.8,0.1,2.5,0.6,3.1c0.5,0.6,1.3,1,2.1,1c1.1,0.1,2.1-0.6,2.4-1.7c0.2-0.6,0.3-1.4,0.4-3.1h3.4
		c0,3-0.2,4.2-1,5.5c-1.2,1.8-3.1,2.7-5.9,2.7c-1.8,0-3.3-0.5-4.4-1.4c-1.5-1.3-2-2.8-2-6.1V13.3h-5V9.9h5V2.6l4.4-1.6v8.9h8.4v3.4
		h-8.4V27.8z"/>
	<polygon class="st0" points="200,31.4 204.1,31.4 204.1,34.8 191.3,34.8 191.3,31.4 195.7,31.4 195.7,13.3 191.3,13.3 191.3,9.9 
		200,9.9 	"/>
	<path class="st0" d="M211.7,22.1c0,5.9,3.4,9.8,8.4,9.8c5.1,0,8.4-3.7,8.4-9.5c0-2.8-0.5-4.6-1.8-6.3c-1.6-2.2-3.8-3.3-6.6-3.3
		C215.1,12.6,211.7,16.5,211.7,22.1 M233.2,22.2c0,7.9-5.2,13.1-13,13.1c-8.2,0-13.2-5.2-13.2-13.4c0-7.7,5.2-12.7,13.1-12.7
		C228.2,9.2,233.2,14.2,233.2,22.2"/>
	<path class="st0" d="M244.9,14.7c1-3.5,4.1-5.5,8.6-5.5c5.7,0,8.9,2.8,8.9,7.8v14.4h4.4v3.4h-13.1v-3.4h4.1V18.6
		c0-3.2-2.6-5.9-5.8-5.9c-4.3,0-7,3-7,7.8v10.9h4.4v3.4h-13.4v-3.4h4.7V13.3h-4.7V9.9h9V14.7z"/>
	<path class="st0" d="M305.7,21.9c0,5.9,3.4,9.8,8.4,9.8c5.1,0,8.4-3.7,8.4-9.5c0-2.8-0.5-4.6-1.8-6.3c-1.6-2.2-3.8-3.3-6.6-3.3
		C309.2,12.4,305.7,16.3,305.7,21.9 M327.3,22c0,7.9-5.2,13.1-13,13.1c-8.2,0-13.2-5.2-13.2-13.4c0-7.7,5.2-12.7,13.1-12.7
		C322.3,9,327.3,14,327.3,22"/>
	<path class="st0" d="M339,14.2c0.9-3.5,4.1-5.5,8.6-5.5c5.7,0,8.9,2.8,8.9,7.8v14.4h4.4v3.4h-13.1v-3.4h4.1V18.1
		c0-3.2-2.6-5.9-5.8-5.9c-4.3,0-7,3-7,7.8v10.9h4.4v3.4h-13.4v-3.4h4.7V12.8h-4.7V9.4h9V14.2z"/>
	<path class="st0" d="M383.7,19.7c-0.3-4.6-3.1-7.4-7.7-7.4c-4.5,0-7.6,2.7-8.2,7.4H383.7z M388.1,26.9c-0.2,1.4-0.7,2.7-1.5,3.8
		c-2.1,3.1-5.6,4.7-10.5,4.7c-5.3,0-8.6-1.5-11.1-5c-1.6-2.3-2.3-4.8-2.3-8c0-8.5,4.9-13.6,13.1-13.6c6.4,0,10.5,2.8,11.9,8.1
		c0.5,2,0.7,3,0.7,6.2h-21c0.2,5.3,3.6,8.7,8.9,8.7c4,0,6.9-1.8,7.6-4.9L388.1,26.9z"/>
	<path class="st0" d="M21.2,27c-1.3,3.1-4,4.9-7.6,4.9c-5.1,0-8.4-3.9-8.4-9.8c0-5.6,3.4-9.4,8.5-9.4c2.8,0,5,1.1,6.6,3.3
		c0.2,0.3,0.4,0.7,0.6,1h5c-1.8-4.9-6.1-7.8-12.3-7.8c-7.9,0-13.1,5-13.1,12.8c0,8.2,5.1,13.4,13.2,13.4c6.1,0,10.7-3.2,12.3-8.4
		H21.2z"/>
	<path class="st0" d="M295,13c0,1.7-1.4,3.1-3.1,3.1c-1.7,0-3.1-1.4-3.1-3.1c0-1.7,1.4-3.1,3.1-3.1C293.6,9.9,295,11.3,295,13"/>
	<path class="st0" d="M287.5,22.1c0,1.7-1.4,3.1-3.1,3.1c-1.7,0-3.1-1.4-3.1-3.1c0-1.7,1.4-3.1,3.1-3.1
		C286.1,18.9,287.5,20.3,287.5,22.1"/>
	<path class="st0" d="M279.7,31.4c0,1.7-1.4,3.1-3.1,3.1c-1.7,0-3.1-1.4-3.1-3.1c0-1.7,1.4-3.1,3.1-3.1
		C278.3,28.3,279.7,29.7,279.7,31.4"/>
</g>
<path class="st0" d="M11.5,68.2c0,2.3-0.5,4.1-1.5,5.4s-2.4,1.9-4.3,1.9H2V60.8h3.7c1.9,0,3.3,0.6,4.3,1.9
	C11,64.1,11.5,65.9,11.5,68.2z M9,68.2c0-0.9-0.1-1.6-0.2-2.3s-0.4-1.2-0.7-1.6c-0.3-0.4-0.6-0.8-1-1C6.6,63.1,6.2,63,5.7,63H4.5
	v10.3h1.2c0.5,0,0.9-0.1,1.3-0.3s0.7-0.5,1-1c0.3-0.4,0.5-1,0.7-1.6S9,69.1,9,68.2z M22.8,75.5l-0.7-3.1h-3.9l-0.7,3.1H15l3.7-14.7
	h3.2l3.6,14.7H22.8z M20.2,63.2L20.2,63.2l-1.7,7.3h3.2L20.2,63.2z M33.4,63v12.6h-2.5V63h-2.8v-2.1h8V63H33.4z M46.7,75.5L46,72.4
	h-3.9l-0.7,3.1h-2.5l3.7-14.7h3.2l3.6,14.7H46.7z M44.1,63.2L44.1,63.2l-1.7,7.3h3.2L44.1,63.2z M66.5,63.7c-0.5-0.7-1.2-1-2-1
	c-0.2,0-0.5,0-0.7,0.1c-0.2,0.1-0.4,0.2-0.6,0.4s-0.3,0.4-0.4,0.6c-0.1,0.3-0.2,0.6-0.2,0.9c0,0.6,0.2,1.1,0.6,1.4
	c0.4,0.3,0.9,0.7,1.5,1c0.4,0.2,0.7,0.4,1.1,0.6c0.4,0.2,0.7,0.5,1,0.9c0.3,0.3,0.6,0.7,0.7,1.2c0.2,0.5,0.3,1,0.3,1.6
	c0,0.7-0.1,1.4-0.3,1.9s-0.5,1-0.9,1.4c-0.4,0.4-0.8,0.7-1.3,0.9c-0.5,0.2-1.1,0.3-1.6,0.3c-0.8,0-1.6-0.2-2.3-0.5
	c-0.7-0.3-1.2-0.7-1.7-1.2l1.3-1.8c0.3,0.4,0.7,0.7,1.2,0.9s0.9,0.3,1.4,0.3c0.5,0,1-0.2,1.3-0.5c0.3-0.4,0.5-0.9,0.5-1.5
	c0-0.6-0.2-1.1-0.6-1.5c-0.4-0.4-0.9-0.7-1.6-1c-0.4-0.2-0.8-0.4-1.1-0.6s-0.7-0.5-0.9-0.8s-0.5-0.7-0.6-1.1c-0.2-0.4-0.2-1-0.2-1.6
	c0-0.8,0.1-1.4,0.4-2s0.6-1,1-1.4s0.8-0.6,1.3-0.8c0.5-0.2,1-0.3,1.5-0.3c0.7,0,1.4,0.1,2,0.4c0.6,0.2,1.1,0.6,1.5,1.1L66.5,63.7z
	 M80.2,75.4c-0.6,0.4-1.4,0.5-2.3,0.5c-0.8,0-1.6-0.2-2.3-0.6c-0.7-0.4-1.2-0.9-1.7-1.6c-0.5-0.7-0.8-1.5-1.1-2.4s-0.4-2-0.4-3.1
	c0-1.1,0.1-2.2,0.4-3.1s0.6-1.8,1.1-2.5c0.5-0.7,1-1.2,1.7-1.6c0.7-0.4,1.4-0.6,2.2-0.6c0.8,0,1.6,0.2,2.2,0.5s1.2,0.8,1.6,1.3
	L80.3,64c-0.6-0.8-1.3-1.2-2.2-1.2c-0.5,0-0.9,0.1-1.3,0.4c-0.4,0.3-0.7,0.7-0.9,1.2c-0.2,0.5-0.4,1.1-0.6,1.7
	c-0.1,0.7-0.2,1.4-0.2,2.1c0,0.7,0.1,1.4,0.2,2.1c0.1,0.7,0.3,1.2,0.6,1.7c0.2,0.5,0.6,0.9,0.9,1.2c0.4,0.3,0.8,0.4,1.3,0.4
	c0.5,0,0.9-0.1,1.3-0.4s0.6-0.6,0.9-0.9l1.4,1.7C81.3,74.5,80.8,75,80.2,75.4z M86.6,75.5V60.8h2.5v14.7H86.6z M95.2,75.5V60.8h6.6
	V63h-4.2v3.9h3.9v2h-3.9v4.3h4.4v2.2H95.2z M113.8,75.5l-4.2-10.4h-0.1l0,10.4h-2.2V60.8h2.8l4.1,10.4h0.1l0-10.4h2.2v14.7H113.8z
	 M129.6,75.4c-0.6,0.4-1.4,0.5-2.3,0.5c-0.8,0-1.6-0.2-2.3-0.6c-0.7-0.4-1.2-0.9-1.7-1.6c-0.5-0.7-0.8-1.5-1.1-2.4s-0.4-2-0.4-3.1
	c0-1.1,0.1-2.2,0.4-3.1s0.6-1.8,1.1-2.5c0.5-0.7,1-1.2,1.7-1.6c0.7-0.4,1.4-0.6,2.2-0.6c0.8,0,1.6,0.2,2.2,0.5s1.2,0.8,1.6,1.3
	l-1.4,1.7c-0.6-0.8-1.3-1.2-2.2-1.2c-0.5,0-0.9,0.1-1.3,0.4c-0.4,0.3-0.7,0.7-0.9,1.2c-0.2,0.5-0.4,1.1-0.6,1.7
	c-0.1,0.7-0.2,1.4-0.2,2.1c0,0.7,0.1,1.4,0.2,2.1c0.1,0.7,0.3,1.2,0.6,1.7c0.2,0.5,0.6,0.9,0.9,1.2c0.4,0.3,0.8,0.4,1.3,0.4
	c0.5,0,0.9-0.1,1.3-0.4s0.6-0.6,0.9-0.9l1.4,1.7C130.7,74.5,130.2,75,129.6,75.4z M136,75.5V60.8h6.6V63h-4.2v3.9h3.9v2h-3.9v4.3
	h4.4v2.2H136z M157.8,63.1v4h3.8v2.1h-3.8v6.3h-2.5V60.8h6.6v2.2H157.8z M177.1,68.2c0,1.2-0.1,2.2-0.4,3.2c-0.2,0.9-0.6,1.8-1,2.4
	c-0.5,0.7-1,1.2-1.7,1.6c-0.7,0.4-1.4,0.6-2.2,0.6c-0.8,0-1.6-0.2-2.2-0.6c-0.7-0.4-1.2-0.9-1.7-1.6c-0.5-0.7-0.8-1.5-1-2.4
	s-0.4-2-0.4-3.2s0.1-2.2,0.4-3.2c0.2-0.9,0.6-1.8,1-2.4c0.5-0.7,1-1.2,1.7-1.6c0.7-0.4,1.4-0.6,2.2-0.6c0.8,0,1.6,0.2,2.2,0.6
	c0.7,0.4,1.2,0.9,1.7,1.6c0.5,0.7,0.8,1.5,1,2.4C176.9,66,177.1,67,177.1,68.2z M174.5,68.2c0-0.7-0.1-1.5-0.2-2.1s-0.3-1.2-0.5-1.7
	s-0.5-0.9-0.9-1.1c-0.3-0.3-0.7-0.4-1.2-0.4c-0.5,0-0.9,0.1-1.2,0.4c-0.3,0.3-0.6,0.7-0.9,1.1c-0.2,0.5-0.4,1-0.5,1.7
	s-0.2,1.4-0.2,2.1c0,0.7,0.1,1.5,0.2,2.1c0.1,0.7,0.3,1.2,0.5,1.7c0.2,0.5,0.5,0.9,0.9,1.1c0.3,0.3,0.7,0.4,1.2,0.4
	c0.5,0,0.9-0.1,1.2-0.4c0.3-0.3,0.6-0.7,0.9-1.1c0.2-0.5,0.4-1.1,0.5-1.7C174.4,69.6,174.5,68.9,174.5,68.2z M188.6,75.5l-2.3-6.3
	h-1.4v6.3h-2.4V60.8h4.2c0.6,0,1.2,0.1,1.7,0.2c0.5,0.2,1,0.4,1.3,0.8s0.7,0.8,0.9,1.3c0.2,0.5,0.3,1.2,0.3,1.9
	c0,0.6-0.1,1.1-0.2,1.5c-0.1,0.4-0.3,0.8-0.6,1.1c-0.2,0.3-0.5,0.5-0.7,0.7c-0.3,0.2-0.5,0.3-0.8,0.4l2.6,6.8H188.6z M188.4,65.2
	c0-0.4-0.1-0.8-0.2-1.1s-0.3-0.5-0.5-0.7s-0.4-0.3-0.7-0.4c-0.2-0.1-0.5-0.1-0.7-0.1h-1.4v4.5h1.4c0.6,0,1.1-0.2,1.5-0.6
	C188.2,66.5,188.4,65.9,188.4,65.2z M209.4,75.5l-0.7-3.1h-3.9l-0.7,3.1h-2.5l3.7-14.7h3.2l3.6,14.7H209.4z M206.8,63.2L206.8,63.2
	l-1.7,7.3h3.2L206.8,63.2z M216.7,75.5V60.8h2.5v12.4h4v2.3H216.7z M227.9,75.5V60.8h2.5v12.4h4v2.3H227.9z M240.4,64v6.3h-1.2V64
	h-1.4V63h4V64H240.4z M249.1,70.3l0-5.7h0l-1.5,5.7h-1l-1.4-5.7h0l0,5.7h-1.1V63h1.7l1.4,5.4h0l1.4-5.4h1.8v7.4H249.1z"/>
</svg>
